<svg width="75" height="75" viewBox="0 0 75 75" fill="none" xmlns="http://www.w3.org/2000/svg">
<rect width="75" height="75" rx="16" fill="#EEFF84"/>
<path d="M59.4288 31.0089C58.7954 29.0477 59.0654 26.1037 57.4192 23.8305C55.76 21.5394 52.8743 20.8883 51.2448 19.6965C49.6325 18.5173 48.1325 15.9513 45.4204 15.0663C42.7848 14.2062 40.0897 15.3733 38 15.3733C35.9106 15.3733 33.2157 14.2059 30.5796 15.0662C27.868 15.951 26.3667 18.5176 24.7555 19.6962C23.1278 20.8866 20.2399 21.5395 18.581 23.8302C16.9362 26.1015 17.2034 29.0523 16.5712 31.0088C15.9695 32.871 14 35.1059 14 38.0002C14 40.8962 15.9673 43.1225 16.5712 44.9914C17.2046 46.9526 16.9346 49.8967 18.5808 52.1698C20.2399 54.461 23.1255 55.1121 24.7552 56.3039C26.3672 57.4829 27.8675 60.0491 30.5796 60.934C33.2134 61.7935 35.9128 60.627 38 60.627C40.0843 60.627 42.79 61.7923 45.4204 60.9341C48.1321 60.0493 49.6324 57.4833 51.2445 56.3041C52.8722 55.1138 55.7601 54.4608 57.419 52.1701C59.0639 49.8987 58.7965 46.9482 59.4288 44.9915C60.0305 43.1292 62 40.8943 62 38.0002C62 35.1043 60.0332 32.8787 59.4288 31.0089V31.0089ZM55.8606 43.8383C55.1223 46.1235 55.3157 48.6809 54.382 49.9703C53.4357 51.2769 50.9495 51.8738 49.0311 53.277C47.1337 54.6646 45.8038 56.8643 44.2572 57.3689C42.7939 57.8465 40.4093 56.8768 38.0001 56.8768C35.5733 56.8768 33.2132 57.8485 31.7429 57.3689C30.1964 56.8643 28.8685 54.6661 26.969 53.2769C25.0619 51.8822 22.5616 51.2731 21.618 49.9702C20.6873 48.685 20.8734 46.1099 20.1396 43.8384C19.4203 41.6129 17.75 39.6859 17.75 38.0002C17.75 36.3128 19.4188 34.3924 20.1394 32.162C20.8777 29.8769 20.6843 27.3193 21.618 26.03C22.5638 24.7242 25.0518 24.1254 26.969 22.7233C28.8724 21.3312 30.1939 19.1368 31.7427 18.6314C33.2048 18.1544 35.5972 19.1235 37.9999 19.1235C40.4311 19.1235 42.7853 18.1511 44.2571 18.6314C45.8034 19.136 47.1325 21.335 49.0311 22.7234C50.9379 24.1181 53.4384 24.7272 54.382 26.0301C55.3129 27.3155 55.1258 29.888 55.8604 32.1618V32.1619C56.5797 34.3874 58.25 36.3144 58.25 38.0002C58.25 39.6876 56.5812 41.6079 55.8606 43.8383V43.8383ZM46.6384 31.9819C47.3707 32.7142 47.3707 33.9013 46.6384 34.6335L37.2535 44.0184C36.5212 44.7507 35.3339 44.7506 34.6017 44.0184L29.3617 38.7784C28.6294 38.0461 28.6293 36.8589 29.3616 36.1268C30.0939 35.3946 31.2812 35.3945 32.0132 36.1268L35.9276 40.041L43.9866 31.982C44.7189 31.2497 45.9061 31.2497 46.6384 31.9819V31.9819Z" fill="black"/>
</svg>
