<svg width="75" height="75" viewBox="0 0 75 75" fill="none" xmlns="http://www.w3.org/2000/svg">
<rect width="75" height="75" rx="16" fill="#8489FF"/>
<path d="M54.8798 15.2274C54.1065 13.8535 52.6317 13 51.0307 13H38.094C35.6709 13 33.6995 14.9714 33.6995 17.3945V23.2539C33.6995 25.6771 35.6709 27.6484 38.094 27.6484H46.8831C47.6908 27.6484 48.3479 28.3056 48.3479 29.1133V40.6204C44.1242 39.4657 39.6718 39.323 35.3919 40.1937C32.1308 37.0732 27.5122 35.8038 22.9 36.957C18.2885 38.1101 14.4612 41.8732 13.3658 46.5572C12.4238 50.5863 13.3422 54.7364 15.8857 57.9433C18.4344 61.1568 22.2222 63 26.2776 63C45.4002 63 58.6373 55.7338 62.1866 53.9587C62.6829 53.7105 62.9964 53.2033 62.9964 52.6484V46.2938C62.9964 35.4039 60.1896 24.6613 54.8798 15.2274V15.2274ZM60.0667 51.7458C55.3078 54.1429 43.2606 60.0703 26.2776 60.0703C23.1219 60.0703 20.1709 58.6314 18.1809 56.1226C16.1966 53.6206 15.4812 50.3772 16.2185 47.2241C17.0469 43.6813 20.0176 40.6975 23.6105 39.799C26.5605 39.0613 29.518 39.5658 31.9062 41.1421C30.764 41.5346 29.6433 42.0035 28.5522 42.549C27.8286 42.9108 27.5353 43.7907 27.8971 44.5144C28.2589 45.2379 29.1387 45.5313 29.8624 45.1694C36.8207 41.6903 45.1289 41.6902 52.0874 45.1694C52.8122 45.5319 53.6915 45.2366 54.0526 44.5144C54.4144 43.7907 54.1212 42.9108 53.3975 42.549C52.7023 42.2014 51.9948 41.8854 51.2776 41.5999V29.1133C51.2776 26.6901 49.3062 24.7188 46.8831 24.7188H45.4182V20.3242C45.4182 19.5152 44.7624 18.8594 43.9534 18.8594H41.0237C40.2147 18.8594 39.5589 19.5152 39.5589 20.3242C39.5589 21.1332 40.2147 21.7891 41.0237 21.7891H42.4885V24.7188H38.094C37.2863 24.7188 36.6292 24.0616 36.6292 23.2539V17.3945C36.6292 16.5868 37.2863 15.9297 38.094 15.9297H51.0308C51.5751 15.9297 52.0717 16.2112 52.3268 16.6644C57.3904 25.6605 60.0668 35.9062 60.0668 46.2938V51.7458H60.0667Z" fill="black"/>
</svg>
