<svg width="75" height="75" viewBox="0 0 75 75" fill="none" xmlns="http://www.w3.org/2000/svg">
<rect width="75" height="75" rx="16" fill="#66FBC5"/>
<g clip-path="url(#clip0_47_20)">
<path d="M51.5388 42.6995C47.7159 42.6995 44.606 45.8094 44.606 49.6323C44.606 53.4551 47.7159 56.565 51.5388 56.565C55.3622 56.565 58.4716 53.4551 58.4716 49.6323C58.4716 45.8094 55.3616 42.6995 51.5388 42.6995ZM51.5388 53.0987C49.6271 53.0987 48.0724 51.5439 48.0724 49.6323C48.0724 47.7206 49.6271 46.1659 51.5388 46.1659C53.4504 46.1659 55.0052 47.7206 55.0052 49.6323C55.0052 51.544 53.4504 53.0987 51.5388 53.0987Z" fill="black"/>
<path d="M27.852 42.6995C24.0292 42.6995 20.9192 45.8094 20.9192 49.6323C20.9192 53.4551 24.0292 56.565 27.852 56.565C31.6748 56.565 34.7848 53.4551 34.7848 49.6323C34.7848 45.8094 31.6748 42.6995 27.852 42.6995ZM27.852 53.0987C25.9403 53.0987 24.3856 51.5439 24.3856 49.6323C24.3856 47.7206 25.9403 46.1659 27.852 46.1659C29.7631 46.1659 31.3184 47.7206 31.3184 49.6323C31.3184 51.544 29.7637 53.0987 27.852 53.0987Z" fill="black"/>
<path d="M56.2076 22.8558C55.9129 22.2705 55.3139 21.9013 54.6587 21.9013H45.5305V25.3677H53.5898L58.3093 34.7547L61.4071 33.197L56.2076 22.8558Z" fill="black"/>
<path d="M46.3393 47.957H33.2249V51.4234H46.3393V47.957Z" fill="black"/>
<path d="M22.6524 47.957H16.644C15.6867 47.957 14.9109 48.7329 14.9109 49.6902C14.9109 50.6475 15.6868 51.4233 16.644 51.4233H22.6525C23.6098 51.4233 24.3856 50.6474 24.3856 49.6902C24.3856 48.7328 23.6097 47.957 22.6524 47.957Z" fill="black"/>
<path d="M64.6362 37.3613L61.227 32.9706C60.8995 32.5476 60.394 32.3004 59.8584 32.3004H47.2638V20.168C47.2638 19.2107 46.4879 18.4349 45.5306 18.4349H16.644C15.6867 18.4349 14.9109 19.2108 14.9109 20.168C14.9109 21.1253 15.6868 21.9012 16.644 21.9012H43.7974V34.0335C43.7974 34.9908 44.5733 35.7666 45.5305 35.7666H59.0096L61.5337 39.0181V47.9568H56.7385C55.7812 47.9568 55.0054 48.7327 55.0054 49.6899C55.0054 50.6473 55.7813 51.4231 56.7385 51.4231H63.2668C64.2242 51.4231 65 50.6471 65.0001 49.6899V38.4244C65.0001 38.0396 64.8718 37.6652 64.6362 37.3613Z" fill="black"/>
<path d="M22.5367 39.1755H14.564C13.6066 39.1755 12.8308 39.9514 12.8308 40.9086C12.8308 41.866 13.6067 42.6418 14.564 42.6418H22.5366C23.4939 42.6418 24.2697 41.8659 24.2697 40.9086C24.2698 39.9514 23.4939 39.1755 22.5367 39.1755Z" fill="black"/>
<path d="M26.5231 32.3582H11.7331C10.7759 32.3582 10 33.1341 10 34.0914C10 35.0488 10.7759 35.8246 11.7331 35.8246H26.5231C27.4804 35.8246 28.2562 35.0486 28.2562 34.0914C28.2562 33.1342 27.4804 32.3582 26.5231 32.3582Z" fill="black"/>
<path d="M29.3539 25.541H14.564C13.6066 25.541 12.8308 26.3169 12.8308 27.2741C12.8308 28.2314 13.6067 29.0072 14.564 29.0072H29.3539C30.3113 29.0072 31.0871 28.2313 31.0871 27.2741C31.0872 26.3169 30.3113 25.541 29.3539 25.541Z" fill="black"/>
</g>
<defs>
<clipPath id="clip0_47_20">
<rect width="55" height="55" fill="white" transform="translate(10 10)"/>
</clipPath>
</defs>
</svg>
