<svg width="40" height="40" viewBox="0 0 40 40" fill="none" xmlns="http://www.w3.org/2000/svg">
<path d="M19.3221 36.6342C19.3221 38.4688 17.8349 39.9561 16.0002 39.9561C14.1656 39.9561 12.6783 38.4688 12.6783 36.6342C12.6783 34.7996 14.1656 33.3123 16.0002 33.3123C17.8349 33.3123 19.3221 34.7996 19.3221 36.6342ZM29.4508 33.3123C27.6162 33.3123 26.1289 34.7996 26.1289 36.6342C26.1289 38.4688 27.6162 39.9561 29.4508 39.9561C31.2854 39.9561 32.7727 38.4688 32.7727 36.6342C32.7727 34.7996 31.2854 33.3123 29.4508 33.3123ZM39.7623 17.7179L35.6747 29.8669C35.6747 29.8669 35.3364 31.6699 33.6124 31.6699C31.8885 31.6699 15.0296 31.6699 12.9722 31.6699C10.9149 31.6699 10.8284 29.41 10.8284 29.41C10.8284 29.41 8.63524 13.1389 8.52656 12.1559C8.41787 11.1729 7.16076 10.4443 7.16076 10.4443L1.75186 7.91768C-1.20944 6.3691 0.136599 3.42261 1.75186 4.09935C8.61053 7.33479 11.7966 8.92783 12.0016 10.2023C12.2091 11.4791 12.5696 14.5541 12.5696 14.5541V14.5738C12.6116 14.5615 12.6413 14.5541 12.6413 14.5541C12.6413 14.5541 33.6742 14.5541 37.9223 14.5541C40.975 14.5541 39.7623 17.7228 39.7623 17.7179ZM33.8495 24.4827L33.8075 24.4852H13.7971L14.2096 27.7552H32.8764L33.8495 24.4827ZM35.7982 17.8883H12.9697L13.4094 21.3831C17.7884 21.3831 30.6116 21.3831 34.7658 21.3831L35.7982 17.8883Z" fill="#090509"/>
</svg>
