<svg width="250" height="60" viewBox="0 0 250 60" fill="none" xmlns="http://www.w3.org/2000/svg">
<path d="M80.8344 37.114C79.8462 37.114 78.8959 36.9557 77.9837 36.6389C77.0842 36.3222 76.3873 35.9041 75.8932 35.3846L76.4443 34.3014C76.9258 34.7828 77.5656 35.1756 78.3638 35.4796C79.162 35.771 79.9855 35.9167 80.8344 35.9167C82.0253 35.9167 82.9186 35.7014 83.514 35.2706C84.1095 34.8271 84.4072 34.257 84.4072 33.5602C84.4072 33.0281 84.2425 32.6036 83.9131 32.2869C83.5964 31.9701 83.2036 31.7294 82.7348 31.5647C82.2661 31.3873 81.6136 31.1973 80.7774 30.9946C79.7765 30.7412 78.9783 30.5005 78.3828 30.2724C77.7873 30.0317 77.2742 29.6706 76.8434 29.1891C76.4253 28.7077 76.2163 28.0552 76.2163 27.2317C76.2163 26.5602 76.3937 25.952 76.7484 25.4072C77.1032 24.8498 77.648 24.4063 78.3828 24.0769C79.1176 23.7475 80.0299 23.5828 81.1195 23.5828C81.8796 23.5828 82.6208 23.6905 83.343 23.9059C84.0778 24.1086 84.7113 24.3937 85.2434 24.7611L84.7683 25.8824C84.2109 25.5149 83.6154 25.2425 82.9819 25.0652C82.3484 24.8751 81.7276 24.7801 81.1195 24.7801C79.9538 24.7801 79.0733 25.0081 78.4778 25.4643C77.895 25.9077 77.6036 26.4842 77.6036 27.1937C77.6036 27.7258 77.762 28.1566 78.0787 28.486C78.4081 28.8027 78.8136 29.0498 79.295 29.2271C79.7891 29.3919 80.448 29.5756 81.2715 29.7783C82.2471 30.019 83.0326 30.2597 83.6281 30.5005C84.2362 30.7285 84.7493 31.0833 85.1674 31.5647C85.5855 32.0335 85.7946 32.6733 85.7946 33.4842C85.7946 34.1557 85.6109 34.7701 85.2434 35.3276C84.8887 35.8724 84.3376 36.3095 83.59 36.6389C82.8425 36.9557 81.924 37.114 80.8344 37.114ZM101.041 26.9276C102.295 26.9276 103.277 27.2887 103.986 28.0109C104.709 28.733 105.07 29.7973 105.07 31.2036V37H103.72V31.3367C103.72 30.2977 103.467 29.5059 102.96 28.9611C102.466 28.4163 101.763 28.1439 100.851 28.1439C99.8117 28.1439 98.9945 28.467 98.399 29.1131C97.8035 29.7466 97.5058 30.6271 97.5058 31.7548V37H96.1565V31.3367C96.1565 30.2977 95.9031 29.5059 95.3963 28.9611C94.9022 28.4163 94.1927 28.1439 93.2678 28.1439C92.2416 28.1439 91.4244 28.467 90.8162 29.1131C90.2207 29.7466 89.923 30.6271 89.923 31.7548V37H88.5737V27.0036H89.866V28.8281C90.2207 28.2199 90.7149 27.7511 91.3483 27.4217C91.9818 27.0923 92.7103 26.9276 93.5339 26.9276C94.3701 26.9276 95.0922 27.105 95.7004 27.4597C96.3212 27.8145 96.7836 28.3403 97.0877 29.0371C97.4551 28.3783 97.9809 27.8652 98.6651 27.4977C99.3619 27.1176 100.154 26.9276 101.041 26.9276ZM112.226 26.9276C113.531 26.9276 114.532 27.257 115.228 27.9158C115.925 28.562 116.274 29.5249 116.274 30.8045V37H114.981V35.4416C114.677 35.9611 114.228 36.3665 113.632 36.6579C113.049 36.9493 112.352 37.095 111.542 37.095C110.427 37.095 109.54 36.829 108.881 36.2968C108.222 35.7647 107.893 35.0615 107.893 34.1873C107.893 33.3385 108.197 32.6543 108.805 32.1348C109.426 31.6154 110.408 31.3557 111.751 31.3557H114.924V30.7475C114.924 29.886 114.684 29.2335 114.202 28.79C113.721 28.3339 113.018 28.1059 112.093 28.1059C111.459 28.1059 110.851 28.2136 110.268 28.429C109.685 28.6317 109.185 28.9167 108.767 29.2842L108.159 28.2769C108.666 27.8462 109.274 27.5167 109.983 27.2887C110.693 27.048 111.44 26.9276 112.226 26.9276ZM111.751 36.0308C112.511 36.0308 113.163 35.8597 113.708 35.5176C114.253 35.1629 114.658 34.6561 114.924 33.9973V32.3629H111.789C110.078 32.3629 109.223 32.9584 109.223 34.1493C109.223 34.7321 109.445 35.1946 109.888 35.5367C110.332 35.8661 110.952 36.0308 111.751 36.0308ZM121.231 28.9611C121.548 28.2896 122.016 27.7828 122.637 27.4407C123.271 27.0986 124.05 26.9276 124.975 26.9276V28.2389L124.652 28.2199C123.6 28.2199 122.777 28.543 122.181 29.1891C121.586 29.8353 121.288 30.7412 121.288 31.9068V37H119.939V27.0036H121.231V28.9611ZM133.109 36.3919C132.856 36.6199 132.539 36.7973 132.159 36.924C131.791 37.038 131.405 37.095 131 37.095C130.062 37.095 129.34 36.8416 128.833 36.3348C128.326 35.8281 128.073 35.1122 128.073 34.1873V28.1439H126.286V27.0036H128.073V24.8181H129.422V27.0036H132.463V28.1439H129.422V34.1113C129.422 34.7068 129.568 35.1629 129.859 35.4796C130.163 35.7837 130.594 35.9357 131.152 35.9357C131.43 35.9357 131.696 35.8914 131.95 35.8027C132.216 35.714 132.444 35.5873 132.634 35.4226L133.109 36.3919ZM145.315 23.6968V37H143.946V31.4887C142.502 32.1095 141.102 32.4199 139.746 32.4199C138.188 32.4199 136.972 32.0398 136.097 31.2796C135.236 30.5195 134.805 29.4552 134.805 28.0869V23.6968H136.192V27.9348C136.192 28.9611 136.516 29.7593 137.162 30.3294C137.808 30.8995 138.714 31.1846 139.879 31.1846C141.21 31.1846 142.565 30.8679 143.946 30.2344V23.6968H145.315ZM152.944 26.9276C154.249 26.9276 155.25 27.257 155.947 27.9158C156.643 28.562 156.992 29.5249 156.992 30.8045V37H155.7V35.4416C155.396 35.9611 154.946 36.3665 154.35 36.6579C153.767 36.9493 153.071 37.095 152.26 37.095C151.145 37.095 150.258 36.829 149.599 36.2968C148.94 35.7647 148.611 35.0615 148.611 34.1873C148.611 33.3385 148.915 32.6543 149.523 32.1348C150.144 31.6154 151.126 31.3557 152.469 31.3557H155.643V30.7475C155.643 29.886 155.402 29.2335 154.92 28.79C154.439 28.3339 153.736 28.1059 152.811 28.1059C152.177 28.1059 151.569 28.2136 150.986 28.429C150.404 28.6317 149.903 28.9167 149.485 29.2842L148.877 28.2769C149.384 27.8462 149.992 27.5167 150.701 27.2887C151.411 27.048 152.158 26.9276 152.944 26.9276ZM152.469 36.0308C153.229 36.0308 153.881 35.8597 154.426 35.5176C154.971 35.1629 155.377 34.6561 155.643 33.9973V32.3629H152.507C150.796 32.3629 149.941 32.9584 149.941 34.1493C149.941 34.7321 150.163 35.1946 150.606 35.5367C151.05 35.8661 151.671 36.0308 152.469 36.0308ZM160.584 27.0036H161.933V34.9475L168.604 27.0036H169.801V37H168.452V29.0561L161.8 37H160.584V27.0036ZM165.126 25.5593C164.264 25.5593 163.58 25.3439 163.074 24.9131C162.567 24.4824 162.307 23.8742 162.294 23.0887H163.264C163.276 23.5828 163.454 23.9819 163.796 24.286C164.138 24.5774 164.581 24.7231 165.126 24.7231C165.671 24.7231 166.114 24.5774 166.456 24.286C166.811 23.9819 166.995 23.5828 167.007 23.0887H167.977C167.964 23.8742 167.698 24.4824 167.178 24.9131C166.672 25.3439 165.988 25.5593 165.126 25.5593ZM173.668 27.0036H175.017V31.4317H181.308V27.0036H182.657V37H181.308V32.591H175.017V37H173.668V27.0036ZM186.492 27.0036H187.842V34.9475L194.512 27.0036H195.71V37H194.36V29.0561L187.709 37H186.492V27.0036ZM203.206 32.5529H200.926V37H199.577V27.0036H200.926V31.3937H203.225L206.741 27.0036H208.205L204.271 31.8498L208.49 37H206.893L203.206 32.5529ZM210.619 27.0036H211.969V34.9475L218.639 27.0036H219.836V37H218.487V29.0561L211.836 37H210.619V27.0036ZM223.798 37.095C223.52 37.095 223.279 36.9937 223.076 36.791C222.886 36.5882 222.791 36.3412 222.791 36.0498C222.791 35.7584 222.886 35.5176 223.076 35.3276C223.279 35.1249 223.52 35.0235 223.798 35.0235C224.077 35.0235 224.318 35.1249 224.521 35.3276C224.723 35.5176 224.825 35.7584 224.825 36.0498C224.825 36.3412 224.723 36.5882 224.521 36.791C224.318 36.9937 224.077 37.095 223.798 37.095ZM236.423 27.0036V37H235.13V35.1756C234.775 35.7837 234.288 36.2588 233.667 36.6009C233.046 36.9303 232.337 37.095 231.538 37.095C230.233 37.095 229.201 36.7339 228.441 36.0118C227.693 35.2769 227.319 34.2063 227.319 32.8V27.0036H228.669V32.667C228.669 33.7186 228.928 34.5167 229.448 35.0615C229.967 35.6063 230.708 35.8787 231.671 35.8787C232.723 35.8787 233.553 35.562 234.161 34.9285C234.769 34.2824 235.073 33.3891 235.073 32.2489V27.0036H236.423ZM243.698 26.9276C245.003 26.9276 246.004 27.257 246.701 27.9158C247.398 28.562 247.746 29.5249 247.746 30.8045V37H246.454V35.4416C246.15 35.9611 245.7 36.3665 245.105 36.6579C244.522 36.9493 243.825 37.095 243.014 37.095C241.899 37.095 241.012 36.829 240.354 36.2968C239.695 35.7647 239.365 35.0615 239.365 34.1873C239.365 33.3385 239.669 32.6543 240.278 32.1348C240.898 31.6154 241.88 31.3557 243.223 31.3557H246.397V30.7475C246.397 29.886 246.156 29.2335 245.675 28.79C245.193 28.3339 244.49 28.1059 243.565 28.1059C242.932 28.1059 242.324 28.2136 241.741 28.429C241.158 28.6317 240.658 28.9167 240.24 29.2842L239.631 28.2769C240.138 27.8462 240.746 27.5167 241.456 27.2887C242.165 27.048 242.913 26.9276 243.698 26.9276ZM243.223 36.0308C243.983 36.0308 244.636 35.8597 245.181 35.5176C245.726 35.1629 246.131 34.6561 246.397 33.9973V32.3629H243.261C241.551 32.3629 240.696 32.9584 240.696 34.1493C240.696 34.7321 240.917 35.1946 241.361 35.5367C241.804 35.8661 242.425 36.0308 243.223 36.0308Z" fill="black"/>
<rect width="60" height="60" rx="18.0645" fill="black"/>
<g clip-path="url(#clip0_4_36)">
<path d="M35.8355 45.9307H27.7328C25.1637 45.9307 22.7321 44.798 21.0614 42.8232C19.3973 40.8562 18.6696 38.2637 19.0645 35.7105C19.8709 30.4979 20.7438 26.7384 21.6587 24.5366C22.2484 23.1178 23.6138 22.201 25.1374 22.201H34.4152C35.2225 22.201 35.8769 22.8629 35.8769 23.6794C35.8769 24.4959 35.2225 25.1579 34.4152 25.1579H25.1374C24.7937 25.1579 24.486 25.3638 24.3537 25.6823C23.542 27.6357 22.7118 31.2615 21.9527 36.1676C21.69 37.866 22.1747 39.5911 23.2826 40.9006C24.3971 42.218 26.0191 42.9736 27.7328 42.9736H35.8355C37.5486 42.9736 39.1701 42.2183 40.2842 40.9012C41.393 39.5904 41.878 37.8631 41.6147 36.1624C40.8775 31.3985 39.4427 26.5841 38.6532 24.1383C38.4815 23.6063 38.6214 23.0218 39.0148 22.6282L39.9314 21.7111C41.0119 20.4819 42.6085 19.918 44.2154 20.2022C45.8359 20.4886 47.1565 21.5849 47.7477 23.1349L47.7695 23.1928C48.3429 24.739 48.8324 27.8256 49.0163 29.0809C49.1346 29.8886 48.5831 30.6404 47.7846 30.7601C46.9858 30.8795 46.2428 30.3219 46.1245 29.5142C45.7754 27.1307 45.3569 25.1066 45.0324 24.2316L45.0203 24.1993C44.7053 23.3736 44.0006 23.1659 43.7123 23.115C43.0964 23.0062 42.5088 23.2173 42.1002 23.6942C42.0757 23.7228 42.0501 23.7504 42.0236 23.7769L41.7088 24.0919C42.5517 26.7932 43.8144 31.2563 44.5029 35.7049C44.8986 38.2606 44.1705 40.8552 42.5055 42.8235C40.8353 44.7983 38.4041 45.9307 35.8355 45.9307ZM17.8251 20.205C17.8251 16.7921 14.964 15.1186 13.4512 14.7106L13.4508 14.7119C13.3306 14.6795 13.2049 14.6606 13.0746 14.6606C12.2673 14.6606 11.6129 15.3225 11.6129 16.1391C11.6129 16.8238 12.0737 17.3982 12.6984 17.5663L12.698 17.5676C12.698 17.5676 13.3195 17.7497 13.9071 18.2128C14.5763 18.7404 14.9017 19.3921 14.9017 20.205C14.9017 20.6717 14.633 21.7624 14.3732 22.8173C13.8905 24.7766 13.2898 27.2152 13.2939 29.5221C13.2969 31.3304 13.7005 32.8509 14.4932 34.0416C14.7755 34.4656 15.2369 34.6945 15.7069 34.6944C15.9878 34.6944 16.2717 34.6127 16.5221 34.4421C17.1917 33.986 17.369 33.0672 16.918 32.3899C16.4551 31.6946 16.2193 30.728 16.2172 29.5169C16.2139 27.5755 16.7661 25.3336 17.2099 23.5323C17.5536 22.1368 17.8251 21.0346 17.8251 20.205ZM38.3717 17.8238C36.8158 16.0354 35.0667 14.9141 33.2459 14.5222V13.1822C33.2459 12.3656 32.5915 11.7037 31.7842 11.7037C30.9769 11.7037 30.3225 12.3656 30.3225 13.1822V14.5222C28.5017 14.9141 26.7525 16.0354 25.1966 17.8238C24.6634 18.4367 24.7223 19.371 25.3283 19.9104C25.9344 20.4499 26.858 20.3903 27.3913 19.7772C28.8087 18.1481 30.2867 17.322 31.7842 17.322C33.2817 17.322 34.7597 18.1481 36.177 19.7772C36.466 20.1093 36.8694 20.279 37.2749 20.279C37.6178 20.279 37.9623 20.1575 38.24 19.9104C38.846 19.371 38.905 18.4367 38.3717 17.8238Z" fill="white"/>
</g>
<defs>
<clipPath id="clip0_4_36">
<rect width="37.4194" height="36.129" fill="white" transform="translate(11.6129 11.6129)"/>
</clipPath>
</defs>
</svg>
