<svg width="263" height="80" viewBox="0 0 263 80" fill="none" xmlns="http://www.w3.org/2000/svg">
<g filter="url(#filter0_d_158_0)">
<rect x="10" y="10" width="60" height="60" rx="18.0645" fill="black"/>
</g>
<path d="M95.8344 47.114C94.8462 47.114 93.8959 46.9557 92.9837 46.6389C92.0842 46.3095 91.3873 45.8914 90.8932 45.3846L91.4443 44.3014C91.9131 44.7575 92.5403 45.1439 93.3258 45.4606C94.124 45.7647 94.9602 45.9167 95.8344 45.9167C96.6706 45.9167 97.3484 45.8154 97.8679 45.6127C98.4 45.3973 98.7864 45.1122 99.0271 44.7575C99.2805 44.4027 99.4072 44.01 99.4072 43.5792C99.4072 43.0597 99.2552 42.6416 98.9511 42.3249C98.6597 42.0081 98.2733 41.7611 97.7919 41.5837C97.3104 41.3937 96.7783 41.229 96.1955 41.0896C95.6127 40.9502 95.0299 40.8045 94.4471 40.6525C93.8643 40.4878 93.3258 40.2724 92.8317 40.0063C92.3502 39.7403 91.9575 39.3919 91.6534 38.9611C91.362 38.5176 91.2163 37.9412 91.2163 37.2317C91.2163 36.5729 91.3873 35.971 91.7294 35.4262C92.0842 34.8688 92.6226 34.4253 93.3448 34.0959C94.067 33.7538 94.9919 33.5828 96.1195 33.5828C96.867 33.5828 97.6081 33.6905 98.343 33.9059C99.0778 34.1086 99.7113 34.3937 100.243 34.7611L99.7683 35.8824C99.1982 35.5023 98.59 35.2235 97.9439 35.0462C97.3104 34.8688 96.6959 34.7801 96.1005 34.7801C95.3023 34.7801 94.6434 34.8878 94.124 35.1032C93.6045 35.3186 93.2181 35.61 92.9647 35.9774C92.724 36.3321 92.6036 36.7376 92.6036 37.1937C92.6036 37.7131 92.7493 38.1312 93.0407 38.448C93.3448 38.7647 93.7376 39.0118 94.219 39.1891C94.7131 39.3665 95.2516 39.5249 95.8344 39.6643C96.4172 39.8036 96.9937 39.9557 97.5638 40.1204C98.1466 40.2851 98.6787 40.5005 99.1602 40.7665C99.6543 41.0199 100.047 41.362 100.338 41.7928C100.643 42.2235 100.795 42.7873 100.795 43.4842C100.795 44.1303 100.617 44.7321 100.262 45.2896C99.9077 45.8344 99.3629 46.2778 98.6281 46.6199C97.9059 46.9493 96.9747 47.114 95.8344 47.114ZM116.041 36.9276C116.852 36.9276 117.555 37.086 118.15 37.4027C118.758 37.7068 119.227 38.1756 119.556 38.809C119.899 39.4425 120.07 40.2407 120.07 41.2036V47H118.72V41.3367C118.72 40.2851 118.467 39.4932 117.96 38.9611C117.466 38.4163 116.763 38.1439 115.851 38.1439C115.166 38.1439 114.571 38.2896 114.064 38.581C113.57 38.8597 113.184 39.2715 112.905 39.8163C112.639 40.3484 112.506 40.9946 112.506 41.7548V47H111.156V41.3367C111.156 40.2851 110.903 39.4932 110.396 38.9611C109.89 38.4163 109.18 38.1439 108.268 38.1439C107.596 38.1439 107.007 38.2896 106.5 38.581C105.994 38.8597 105.601 39.2715 105.322 39.8163C105.056 40.3484 104.923 40.9946 104.923 41.7548V47H103.574V37.0226H104.866V39.7213L104.657 39.2462C104.961 38.524 105.449 37.9602 106.12 37.5548C106.804 37.1367 107.609 36.9276 108.534 36.9276C109.509 36.9276 110.339 37.1747 111.023 37.6688C111.708 38.1502 112.151 38.8787 112.354 39.8543L111.822 39.6452C112.113 38.8344 112.626 38.1819 113.361 37.6878C114.109 37.181 115.002 36.9276 116.041 36.9276ZM129.981 47V44.7955L129.924 44.4344V40.7475C129.924 39.8986 129.684 39.2462 129.202 38.79C128.733 38.3339 128.03 38.1059 127.093 38.1059C126.447 38.1059 125.832 38.2136 125.249 38.429C124.666 38.6443 124.172 38.9294 123.767 39.2842L123.159 38.2769C123.666 37.8462 124.274 37.5167 124.983 37.2887C125.693 37.048 126.44 36.9276 127.226 36.9276C128.518 36.9276 129.513 37.2507 130.209 37.8968C130.919 38.5303 131.274 39.4995 131.274 40.8045V47H129.981ZM126.542 47.095C125.794 47.095 125.142 46.9747 124.584 46.7339C124.039 46.4805 123.621 46.1385 123.33 45.7077C123.038 45.2643 122.893 44.7575 122.893 44.1873C122.893 43.6679 123.013 43.1991 123.254 42.781C123.507 42.3502 123.913 42.0081 124.47 41.7548C125.04 41.4887 125.8 41.3557 126.751 41.3557H130.19V42.3629H126.789C125.826 42.3629 125.154 42.5339 124.774 42.876C124.407 43.2181 124.223 43.6425 124.223 44.1493C124.223 44.7195 124.445 45.1756 124.888 45.5176C125.332 45.8597 125.952 46.0308 126.751 46.0308C127.511 46.0308 128.163 45.8597 128.708 45.5176C129.266 45.1629 129.671 44.6561 129.924 43.9973L130.228 44.9285C129.975 45.5873 129.532 46.1131 128.898 46.5059C128.277 46.8986 127.492 47.095 126.542 47.095ZM134.939 47V37.0226H136.231V39.7403L136.098 39.2652C136.377 38.505 136.845 37.9285 137.504 37.5357C138.163 37.1303 138.98 36.9276 139.956 36.9276V38.2389C139.905 38.2389 139.854 38.2389 139.804 38.2389C139.753 38.2262 139.702 38.2199 139.652 38.2199C138.6 38.2199 137.777 38.543 137.181 39.1891C136.586 39.8226 136.288 40.7285 136.288 41.9068V47H134.939ZM146 47.095C145.062 47.095 144.34 46.8416 143.833 46.3348C143.326 45.8281 143.073 45.1122 143.073 44.1873V34.8181H144.422V44.1113C144.422 44.6941 144.568 45.1439 144.859 45.4606C145.163 45.7774 145.594 45.9357 146.152 45.9357C146.747 45.9357 147.241 45.7647 147.634 45.4226L148.109 46.3919C147.843 46.6326 147.52 46.81 147.14 46.924C146.772 47.038 146.392 47.095 146 47.095ZM141.286 38.1439V37.0226H147.463V38.1439H141.286ZM159.193 41.3747C158.433 41.7167 157.673 41.9765 156.913 42.1538C156.165 42.3312 155.443 42.4199 154.746 42.4199C153.188 42.4199 151.972 42.0462 151.097 41.2986C150.236 40.5385 149.805 39.4679 149.805 38.0869V33.6968H151.192V37.9348C151.192 38.9611 151.516 39.7593 152.162 40.3294C152.821 40.8995 153.726 41.1846 154.879 41.1846C155.564 41.1846 156.273 41.0959 157.008 40.9186C157.743 40.7285 158.471 40.4624 159.193 40.1204V41.3747ZM158.946 47V33.6968H160.315V47H158.946ZM170.7 47V44.7955L170.643 44.4344V40.7475C170.643 39.8986 170.402 39.2462 169.92 38.79C169.452 38.3339 168.748 38.1059 167.811 38.1059C167.165 38.1059 166.55 38.2136 165.967 38.429C165.385 38.6443 164.891 38.9294 164.485 39.2842L163.877 38.2769C164.384 37.8462 164.992 37.5167 165.701 37.2887C166.411 37.048 167.158 36.9276 167.944 36.9276C169.236 36.9276 170.231 37.2507 170.928 37.8968C171.637 38.5303 171.992 39.4995 171.992 40.8045V47H170.7ZM167.26 47.095C166.512 47.095 165.86 46.9747 165.302 46.7339C164.758 46.4805 164.339 46.1385 164.048 45.7077C163.757 45.2643 163.611 44.7575 163.611 44.1873C163.611 43.6679 163.731 43.1991 163.972 42.781C164.225 42.3502 164.631 42.0081 165.188 41.7548C165.758 41.4887 166.519 41.3557 167.469 41.3557H170.909V42.3629H167.507C166.544 42.3629 165.872 42.5339 165.492 42.876C165.125 43.2181 164.941 43.6425 164.941 44.1493C164.941 44.7195 165.163 45.1756 165.606 45.5176C166.05 45.8597 166.671 46.0308 167.469 46.0308C168.229 46.0308 168.881 45.8597 169.426 45.5176C169.984 45.1629 170.389 44.6561 170.643 43.9973L170.947 44.9285C170.693 45.5873 170.25 46.1131 169.616 46.5059C168.996 46.8986 168.21 47.095 167.26 47.095ZM175.584 47V37.0226H176.933V44.9475L183.604 37.0226H184.801V47H183.452V39.0561L176.8 47H175.584ZM180.107 35.5783C179.271 35.5783 178.593 35.3692 178.074 34.9511C177.567 34.5204 177.301 33.9059 177.275 33.1077H178.245C178.257 33.6145 178.435 34.0136 178.777 34.305C179.119 34.5964 179.562 34.7421 180.107 34.7421C180.652 34.7421 181.095 34.5964 181.437 34.305C181.792 34.0136 181.976 33.6145 181.988 33.1077H182.958C182.945 33.9059 182.679 34.5204 182.159 34.9511C181.64 35.3692 180.956 35.5783 180.107 35.5783ZM188.668 47V37.0226H190.017V41.4317H196.308V37.0226H197.657V47H196.308V42.591H190.017V47H188.668ZM201.492 47V37.0226H202.842V44.9475L209.512 37.0226H210.71V47H209.36V39.0561L202.709 47H201.492ZM221.893 47L217.788 42.0588L218.91 41.3937L223.49 47H221.893ZM214.577 47V37.0226H215.926V47H214.577ZM215.508 42.5529V41.3937H218.72V42.5529H215.508ZM219.024 42.1538L217.769 41.9638L221.741 37.0226H223.205L219.024 42.1538ZM225.619 47V37.0226H226.969V44.9475L233.639 37.0226H234.836V47H233.487V39.0561L226.836 47H225.619ZM238.798 47.095C238.52 47.095 238.279 46.9937 238.076 46.791C237.886 46.5882 237.791 46.3412 237.791 46.0498C237.791 45.7457 237.886 45.4986 238.076 45.3086C238.279 45.1186 238.52 45.0235 238.798 45.0235C239.077 45.0235 239.312 45.1186 239.502 45.3086C239.704 45.4986 239.806 45.7457 239.806 46.0498C239.806 46.3412 239.704 46.5882 239.502 46.791C239.312 46.9937 239.077 47.095 238.798 47.095ZM246.538 47.095C245.689 47.095 244.948 46.9367 244.315 46.6199C243.681 46.3032 243.187 45.8281 242.832 45.1946C242.49 44.5611 242.319 43.7692 242.319 42.819V37.0226H243.669V42.667C243.669 43.7312 243.928 44.5357 244.448 45.0805C244.98 45.6127 245.721 45.8787 246.671 45.8787C247.368 45.8787 247.97 45.7394 248.477 45.4606C248.996 45.1692 249.389 44.7511 249.655 44.2063C249.934 43.6615 250.073 43.009 250.073 42.2489V37.0226H251.423V47H250.13V44.2633L250.339 44.7575C250.023 45.4923 249.528 46.0688 248.857 46.4869C248.198 46.8923 247.425 47.095 246.538 47.095ZM261.436 47V44.7955L261.378 44.4344V40.7475C261.378 39.8986 261.138 39.2462 260.656 38.79C260.188 38.3339 259.484 38.1059 258.547 38.1059C257.901 38.1059 257.286 38.2136 256.703 38.429C256.121 38.6443 255.626 38.9294 255.221 39.2842L254.613 38.2769C255.12 37.8462 255.728 37.5167 256.437 37.2887C257.147 37.048 257.894 36.9276 258.68 36.9276C259.972 36.9276 260.967 37.2507 261.664 37.8968C262.373 38.5303 262.728 39.4995 262.728 40.8045V47H261.436ZM257.996 47.095C257.248 47.095 256.596 46.9747 256.038 46.7339C255.493 46.4805 255.075 46.1385 254.784 45.7077C254.493 45.2643 254.347 44.7575 254.347 44.1873C254.347 43.6679 254.467 43.1991 254.708 42.781C254.961 42.3502 255.367 42.0081 255.924 41.7548C256.494 41.4887 257.255 41.3557 258.205 41.3557H261.645V42.3629H258.243C257.28 42.3629 256.608 42.5339 256.228 42.876C255.861 43.2181 255.677 43.6425 255.677 44.1493C255.677 44.7195 255.899 45.1756 256.342 45.5176C256.786 45.8597 257.407 46.0308 258.205 46.0308C258.965 46.0308 259.617 45.8597 260.162 45.5176C260.72 45.1629 261.125 44.6561 261.378 43.9973L261.683 44.9285C261.429 45.5873 260.986 46.1131 260.352 46.5059C259.731 46.8986 258.946 47.095 257.996 47.095Z" fill="white"/>
<g clip-path="url(#clip0_158_0)">
<path d="M46.0806 56.1953H38.0254C35.4713 56.1953 33.054 55.0667 31.3931 53.0989C29.7388 51.139 29.0153 48.5557 29.4079 46.0117C30.2096 40.8177 31.0773 37.0716 31.9869 34.8776C32.5731 33.4639 33.9305 32.5503 35.4453 32.5503H44.6686C45.4712 32.5503 46.1217 33.21 46.1217 34.0235C46.1217 34.8371 45.4712 35.4967 44.6686 35.4967H35.4453C35.1036 35.4967 34.7977 35.7019 34.6661 36.0193C33.8592 37.9657 33.0338 41.5785 32.2792 46.4671C32.018 48.1594 32.4999 49.8783 33.6012 51.1832C34.7092 52.4959 36.3218 53.2488 38.0254 53.2488H46.0805C47.7837 53.2488 49.3957 52.4961 50.5032 51.1838C51.6055 49.8777 52.0877 48.1566 51.8259 46.4619C51.093 41.7151 49.6667 36.9179 48.8818 34.4808C48.711 33.9507 48.8502 33.3683 49.2412 32.9761L50.1525 32.0623C51.2267 30.8374 52.8139 30.2756 54.4113 30.5587C56.0224 30.8441 57.3352 31.9365 57.9229 33.481L57.9446 33.5386C58.5146 35.0793 59.0013 38.1549 59.1841 39.4057C59.3017 40.2106 58.7535 40.9597 57.9596 41.0789C57.1655 41.1979 56.4269 40.6423 56.3092 39.8375C55.9622 37.4625 55.5462 35.4456 55.2236 34.5737L55.2116 34.5415C54.8984 33.7188 54.1979 33.5118 53.9112 33.4611C53.2989 33.3527 52.7148 33.563 52.3085 34.0383C52.2842 34.0667 52.2588 34.0943 52.2324 34.1207L51.9195 34.4345C52.7575 37.1262 54.0127 41.5734 54.6972 46.006C55.0905 48.5526 54.3667 51.1379 52.7115 53.0992C51.0511 55.067 48.6342 56.1953 46.0806 56.1953V56.1953ZM28.1757 30.5615C28.1757 27.1608 25.3315 25.4933 23.8275 25.0867L23.8271 25.088C23.7076 25.0558 23.5827 25.0369 23.4531 25.0369C22.6506 25.0369 22 25.6965 22 26.5101C22 27.1924 22.4581 27.7647 23.0791 27.9322L23.0787 27.9335C23.0787 27.9335 23.6966 28.115 24.2807 28.5764C24.946 29.1022 25.2695 29.7515 25.2695 30.5615C25.2695 31.0265 25.0024 32.1134 24.7441 33.1644C24.2642 35.1168 23.6671 37.5466 23.6711 39.8454C23.6741 41.6472 24.0753 43.1623 24.8634 44.3487C25.144 44.7712 25.6028 44.9992 26.07 44.9991C26.3493 44.9991 26.6314 44.9178 26.8804 44.7477C27.5461 44.2933 27.7223 43.3777 27.274 42.7029C26.8138 42.0101 26.5794 41.0469 26.5773 39.8402C26.574 37.9057 27.123 35.6718 27.5641 33.8769C27.9058 32.4864 28.1757 31.3881 28.1757 30.5615V30.5615ZM48.6019 28.1888C47.0551 26.4068 45.3163 25.2895 43.5061 24.899V23.5638C43.5061 22.7501 42.8556 22.0906 42.053 22.0906C41.2505 22.0906 40.5999 22.7501 40.5999 23.5638V24.899C38.7897 25.2895 37.0509 26.4068 35.5041 28.1888C34.9739 28.7996 35.0325 29.7305 35.635 30.268C36.2375 30.8055 37.1557 30.7461 37.6859 30.1352C39.095 28.5119 40.5643 27.6888 42.053 27.6888C43.5417 27.6888 45.0111 28.5119 46.4201 30.1352C46.7074 30.4662 47.1084 30.6352 47.5116 30.6352C47.8525 30.6352 48.1949 30.5142 48.471 30.268C49.0735 29.7305 49.1321 28.7996 48.6019 28.1888V28.1888Z" fill="white"/>
</g>
<defs>
<filter id="filter0_d_158_0" x="0" y="0" width="80" height="80" filterUnits="userSpaceOnUse" color-interpolation-filters="sRGB">
<feFlood flood-opacity="0" result="BackgroundImageFix"/>
<feColorMatrix in="SourceAlpha" type="matrix" values="0 0 0 0 0 0 0 0 0 0 0 0 0 0 0 0 0 0 127 0" result="hardAlpha"/>
<feMorphology radius="3" operator="dilate" in="SourceAlpha" result="effect1_dropShadow_158_0"/>
<feOffset/>
<feGaussianBlur stdDeviation="3.5"/>
<feColorMatrix type="matrix" values="0 0 0 0 1 0 0 0 0 1 0 0 0 0 1 0 0 0 0.25 0"/>
<feBlend mode="normal" in2="BackgroundImageFix" result="effect1_dropShadow_158_0"/>
<feBlend mode="normal" in="SourceGraphic" in2="effect1_dropShadow_158_0" result="shape"/>
</filter>
<clipPath id="clip0_158_0">
<rect width="37.2" height="36" fill="white" transform="translate(22 22)"/>
</clipPath>
</defs>
</svg>
