<svg width="35" height="35" viewBox="0 0 35 35" fill="none" xmlns="http://www.w3.org/2000/svg">
<path d="M17.5 34.4453C27.1673 34.4453 35 26.7367 35 17.2227C35 7.70857 27.1673 0 17.5 0C7.83271 0 0 7.70857 0 17.2227C0 26.7367 7.83271 34.4453 17.5 34.4453ZM8.00771 16.8495L24.8806 10.447C25.6638 10.1685 26.3477 10.635 26.094 11.8004L26.0954 11.799L23.2225 25.1192C23.0096 26.0636 22.4394 26.2933 21.6417 25.8483L17.2667 22.6751L15.1565 24.6758C14.9231 24.9054 14.7263 25.0992 14.2742 25.0992L14.5848 20.7174L22.6931 13.5083C23.046 13.2026 22.6144 13.0304 22.1492 13.3346L12.129 19.5434L7.80938 18.2173C6.87167 17.9245 6.85125 17.2944 8.00771 16.8495V16.8495Z" fill="#FFF2F2"/>
</svg>
