<svg width="35" height="35" viewBox="0 0 35 35" fill="none" xmlns="http://www.w3.org/2000/svg">
<path d="M17.5 0C7.83535 0 0 7.83499 0 17.5C0 27.165 7.83535 35 17.5 35C27.1647 35 35 27.165 35 17.5C35 7.83499 27.1647 0 17.5 0ZM26.3769 19.3927C27.1926 20.1894 28.0555 20.9391 28.7877 21.8182C29.1121 22.207 29.4179 22.6091 29.6506 23.0613C29.9829 23.7062 29.6829 24.4134 29.1057 24.4517L25.5205 24.4509C24.5945 24.5276 23.8576 24.1541 23.2364 23.5211C22.7405 23.0166 22.2804 22.4777 21.8028 21.956C21.6076 21.7419 21.4021 21.5403 21.1572 21.3817C20.6684 21.0637 20.2438 21.1611 19.9638 21.6717C19.6784 22.1913 19.6132 22.767 19.586 23.3453C19.547 24.1906 19.2921 24.4116 18.4438 24.4513C16.6314 24.5362 14.9116 24.2612 13.3132 23.3474C11.9032 22.5414 10.8119 21.4039 9.86087 20.116C8.009 17.6053 6.59074 14.8497 5.31642 12.0149C5.02962 11.3765 5.23944 11.0349 5.94373 11.0217C7.11386 10.9991 8.28399 11.002 9.45412 11.0206C9.93033 11.0281 10.2454 11.3006 10.4284 11.75C11.0607 13.3057 11.8359 14.7859 12.8073 16.1587C13.0662 16.5243 13.3304 16.8888 13.7068 17.147C14.1221 17.432 14.4386 17.3378 14.6345 16.8741C14.7598 16.5794 14.8139 16.2643 14.8411 15.9485C14.9342 14.8669 14.9453 13.7855 14.7841 12.7081C14.6839 12.0339 14.3047 11.5985 13.6326 11.471C13.2903 11.4062 13.3405 11.2795 13.507 11.084C13.7959 10.746 14.0666 10.5369 14.6076 10.5369L18.6583 10.5362C19.2967 10.6615 19.4399 10.9479 19.5266 11.591L19.5302 16.0925C19.5227 16.3413 19.6551 17.0789 20.102 17.2418C20.4601 17.36 20.6964 17.0728 20.9105 16.8462C21.8819 15.8153 22.574 14.5987 23.1938 13.3394C23.4674 12.784 23.7033 12.2094 23.9325 11.6336C24.1029 11.2079 24.3679 10.9984 24.8484 11.0056L28.7491 11.0102C28.864 11.0102 28.9807 11.0113 29.0946 11.031C29.752 11.1434 29.9321 11.4263 29.7287 12.0676C29.4086 13.0751 28.7866 13.9144 28.1787 14.7559C27.527 15.6567 26.832 16.5261 26.1868 17.4309C25.5939 18.258 25.6408 18.6744 26.3769 19.3927Z" fill="#FFF2F2"/>
</svg>
