<svg width="28" height="28" viewBox="0 0 28 28" fill="none" xmlns="http://www.w3.org/2000/svg">
<path d="M23.8438 3.28125H18.9219V2.46094C18.9219 1.10398 17.8179 0 16.4609 0H11.5391C10.1821 0 9.07812 1.10398 9.07812 2.46094V3.28125H4.15625C2.79929 3.28125 1.69531 4.38523 1.69531 5.74219V7.38281C1.69531 7.83584 2.06259 8.20312 2.51562 8.20312H3.40063L4.84367 25.7548C4.84384 25.7572 4.84405 25.7595 4.84427 25.7619C4.96032 27.0378 6.01398 28 7.29509 28H20.7049C21.986 28 23.0396 27.0378 23.1557 25.7619C23.1559 25.7595 23.1561 25.7572 23.1563 25.7548L24.5994 8.20312H25.4844C25.9374 8.20312 26.3047 7.83584 26.3047 7.38281V5.74219C26.3047 4.38523 25.2007 3.28125 23.8438 3.28125ZM10.7188 2.46094C10.7188 2.00862 11.0867 1.64062 11.5391 1.64062H16.4609C16.9133 1.64062 17.2812 2.00862 17.2812 2.46094V3.28125H10.7188V2.46094ZM21.5216 25.6161C21.4817 26.0401 21.131 26.3594 20.7049 26.3594H7.29509C6.86897 26.3594 6.51831 26.0401 6.47839 25.6161L5.04678 8.20312H22.9532L21.5216 25.6161ZM24.6641 6.5625H23.8438H4.15625H3.33594V5.74219C3.33594 5.28987 3.70393 4.92188 4.15625 4.92188H9.89844H18.1016H23.8438C24.2961 4.92188 24.6641 5.28987 24.6641 5.74219V6.5625Z" fill="black"/>
<path d="M14 9.84375C13.547 9.84375 13.1797 10.211 13.1797 10.6641V22.2578C13.1797 22.7108 13.547 23.0781 14 23.0781C14.453 23.0781 14.8203 22.7108 14.8203 22.2578V10.6641C14.8203 10.211 14.453 9.84375 14 9.84375Z" fill="black"/>
<path d="M18.9219 9.84375C18.4688 9.84375 18.1016 10.211 18.1016 10.6641V22.2578C18.1016 22.7108 18.4688 23.0781 18.9219 23.0781C19.3749 23.0781 19.7422 22.7108 19.7422 22.2578V10.6641C19.7422 10.211 19.3749 9.84375 18.9219 9.84375Z" fill="black"/>
<path d="M9.07812 9.84375C8.62509 9.84375 8.25781 10.211 8.25781 10.6641V22.2578C8.25781 22.7108 8.62509 23.0781 9.07812 23.0781C9.53116 23.0781 9.89844 22.7108 9.89844 22.2578V10.6641C9.89844 10.211 9.53116 9.84375 9.07812 9.84375Z" fill="black"/>
</svg>
